<svg xmlns="http://www.w3.org/2000/svg" width="15.04" height="16" viewBox="0 0 15.04 16">
  <path id="icons8-contacts" d="M12.41,3.313A3.41,3.41,0,0,0,9.06,5.163,6.065,6.065,0,0,0,9.025,8.9a1.2,1.2,0,0,0-.281.925v.023a2.1,2.1,0,0,0,.375,1.007c.083.108.2.114.3.176a4.124,4.124,0,0,0,.527,1.382.372.372,0,0,0,.07.152l.047.059a1.258,1.258,0,0,1,.176.691,8.065,8.065,0,0,1-.035.855,1.6,1.6,0,0,1-.843.738c-.47.237-1.085.455-1.71.726a5.444,5.444,0,0,0-1.769,1.113,3.259,3.259,0,0,0-.925,2.167l-.023.4h15.04l-.023-.4a3.268,3.268,0,0,0-.914-2.167,5.39,5.39,0,0,0-1.769-1.113c-.625-.271-1.245-.488-1.722-.726a1.7,1.7,0,0,1-.878-.761c-.029-.354-.035-.634-.035-.949a1.006,1.006,0,0,1,.187-.562s.009-.007.012-.012.023-.023.023-.023a.367.367,0,0,0,.094-.176,4.328,4.328,0,0,0,.5-1.382c.117-.062.249-.069.34-.187a1.97,1.97,0,0,0,.328-1.031,1.2,1.2,0,0,0-.258-.9,6.873,6.873,0,0,0,.351-2.542,2.967,2.967,0,0,0-.5-1.523,2.171,2.171,0,0,0-1.347-.808,2.334,2.334,0,0,0-1.944-.738Zm.012.75h.012c.748,0,1.227.214,1.382.48l.094.164.187.023a1.352,1.352,0,0,1,1.007.562,2.278,2.278,0,0,1,.363,1.148A6.723,6.723,0,0,1,15.1,8.876l-.117.316.293.152a.638.638,0,0,1,.105.41v.012a1.318,1.318,0,0,1-.187.633c-.063.082-.1.07-.082.07h-.328l-.047.328a3.711,3.711,0,0,1-.527,1.406H14.2c-.022.032-.038.07-.059.105a4.216,4.216,0,0,1-.457.445,2.092,2.092,0,0,1-1.23.562,2.133,2.133,0,0,1-1.242-.586,4.364,4.364,0,0,1-.55-.562s0-.009,0-.012a3.5,3.5,0,0,1-.539-1.359l-.035-.328h-.3A.218.218,0,0,1,9.7,10.4a1.461,1.461,0,0,1-.211-.633V9.755c0-.006,0-.006,0-.012a.689.689,0,0,1,.141-.422l.211-.152-.059-.258a5.67,5.67,0,0,1-.035-3.444C10.116,4.63,10.854,4.1,12.422,4.062Zm-1.429,9.452a2.491,2.491,0,0,0,1.464.55,2.437,2.437,0,0,0,1.429-.527c0,.228.009.463.035.75v.047l.023.047a1.693,1.693,0,0,0,.269.457.439.439,0,0,0-.012.047,1.624,1.624,0,0,1-.351.515,1.813,1.813,0,0,1-1.394.539,1.857,1.857,0,0,1-1.417-.562,1.632,1.632,0,0,1-.363-.539,1.6,1.6,0,0,0,.258-.469l.023-.07A6.763,6.763,0,0,0,10.993,13.515ZM14.8,15.353a4.174,4.174,0,0,0,.41.234c.548.272,1.168.483,1.757.738a4.771,4.771,0,0,1,1.534.949,2.436,2.436,0,0,1,.609,1.288H5.8a2.425,2.425,0,0,1,.609-1.288,4.846,4.846,0,0,1,1.546-.949c.589-.255,1.2-.464,1.745-.738a4.409,4.409,0,0,0,.4-.223,2.561,2.561,0,0,0,.4.539,2.673,2.673,0,0,0,1.956.785,2.631,2.631,0,0,0,1.933-.773A2.355,2.355,0,0,0,14.8,15.353Z" transform="translate(-4.938 -3.313)" fill="#50e3a4"/>
</svg>
